name C:\Users\u0101727\Documents\MyRepositories\upper-imu-dc\Results\main_tracking\Case_26\kinematics.mot
datacolumns 10
datarows 47
range 1.70000000 2.16000000
endheader 
time	clav_prot	clav_elev	scapula_abduction	scapula_elevation	scapula_upward_rot	scapula_winging	plane_elv	shoulder_elv	axial_rot	
          1.70000000	        -21.52493729	         12.05004114	         -2.86666892	          3.60813633	         32.84359032	         -2.28376619	         -2.31326748	          1.29700461	         39.37438137	
          1.71000000	        -21.72838194	         12.05165747	         -3.20956590	          3.58927995	         32.88642636	         -2.29694281	         -2.33195307	          1.23860403	         39.38758904	
          1.72000000	        -21.76182960	         12.01610782	         -3.23426423	          3.55693320	         32.91045589	         -2.30617608	         -2.36057628	          1.19716046	         39.41526360	
          1.73000000	        -21.76278771	         11.96847018	         -3.20412634	          3.52035638	         32.92078311	         -2.31181741	         -2.39919049	          1.16463114	         39.45717321	
          1.74000000	        -21.73904410	         11.92368105	         -3.13740716	          3.48908764	         32.92173518	         -2.31434650	         -2.44788451	          1.13414008	         39.51214650	
          1.75000000	        -21.59646804	         11.88765118	         -2.86157400	          3.47262183	         32.91450359	         -2.31349147	         -2.51005919	          1.10291909	         39.57530693	
          1.76000000	        -21.66714797	         11.88782338	         -3.00122609	          3.47065962	         32.90406168	         -2.31076710	         -2.58037113	          1.06483250	         39.64962733	
          1.77000000	        -21.66515936	         11.88765685	         -2.99991054	          3.47122574	         32.90108148	         -2.30991388	         -2.64867847	          1.00786958	         39.75190829	
          1.78000000	        -21.59587305	         11.88519746	         -2.86710486	          3.47270294	         32.90498219	         -2.31090005	         -2.72086171	          0.93279344	         39.87716025	
          1.79000000	        -21.75168545	         11.91003566	         -3.16709034	          3.48147744	         32.90599364	         -2.31068013	         -2.82160226	          0.85060716	         40.01337250	
          1.80000000	        -21.71803814	         11.92775191	         -3.12412727	          3.49877591	         32.89299136	         -2.30574495	         -2.97800860	          0.77516919	         40.13840296	
          1.81000000	        -21.49552985	         11.91648276	         -2.73347688	          3.50984774	         32.85974782	         -2.29613157	         -3.19007892	          0.71662699	         40.24533879	
          1.82000000	        -21.29747519	         11.89870689	         -2.40765686	          3.52004384	         32.79844564	         -2.28035364	         -3.49008504	          0.68407834	         40.32265622	
          1.83000000	        -21.64529050	         11.91723467	         -3.13620844	          3.53098602	         32.70800428	         -2.25281051	         -3.89076297	          0.68095812	         40.35590434	
          1.84000000	        -21.50724179	         11.88144964	         -2.96334602	          3.53668936	         32.58548298	         -2.21923156	         -4.38093734	          0.70975618	         40.35412053	
          1.85000000	        -21.70743425	         11.85372831	         -3.44834301	          3.53524204	         32.42974914	         -2.17640827	         -4.96480474	          0.77237841	         40.32318731	
          1.86000000	        -21.58352738	         11.77654856	         -3.33429591	          3.52295726	         32.24236037	         -2.12586543	         -5.61311364	          0.86538958	         40.27982601	
          1.87000000	        -21.57686195	         11.67905378	         -3.44749947	          3.49417838	         32.03002511	         -2.06945094	         -6.29161857	          0.97940213	         40.24906164	
          1.88000000	        -21.57388053	         11.55020131	         -3.56716669	          3.44631823	         31.79880753	         -2.00884294	         -6.96571831	          1.10484063	         40.25721767	
          1.89000000	        -21.57410005	         11.38940517	         -3.68695336	          3.37774225	         31.55504834	         -1.94567070	         -7.60576411	          1.23204127	         40.32664937	
          1.90000000	        -21.57618750	         11.19579234	         -3.79897359	          3.28663582	         31.30504092	         -1.88149741	         -8.18990594	          1.35251898	         40.47234779	
          1.91000000	        -21.57815496	         10.96687357	         -3.89362352	          3.17004081	         31.05495727	         -1.81783059	         -8.70716228	          1.45966808	         40.69914897	
          1.92000000	        -21.57755116	         10.69791891	         -3.96014293	          3.02350107	         30.81030625	         -1.75591401	         -9.15769985	          1.54972759	         41.00181383	
          1.93000000	        -21.57159343	         10.38159610	         -3.98758137	          2.84099977	         30.57493911	         -1.69631995	         -9.55157928	          1.62299046	         41.36724569	
          1.94000000	        -21.55952613	         10.00818711	         -3.96998976	          2.61515628	         30.35024910	         -1.63850215	         -9.90668680	          1.68440266	         41.77767187	
          1.95000000	        -21.54705023	          9.56776975	         -3.91568702	          2.33859318	         30.13509301	         -1.58043439	        -10.24539118	          1.74271116	         42.21349241	
          1.96000000	        -21.54773261	          9.05395659	         -3.85140952	          2.00659401	         29.92578795	         -1.51833444	        -10.59141520	          1.80911135	         42.65490224	
          1.97000000	        -21.57944055	          8.46828894	         -3.81728842	          1.62050742	         29.71611225	         -1.44683141	        -10.96716791	          1.89563124	         43.08385270	
          1.98000000	        -21.65859514	          7.82596828	         -3.85814895	          1.19225799	         29.49716051	         -1.35997476	        -11.39151564	          2.01331278	         43.48599388	
          1.99000000	        -21.79616707	          7.16300985	         -4.01870853	          0.74993011	         29.25653555	         -1.25325199	        -11.87562711	          2.17058576	         43.85550010	
          2.00000000	        -21.98644927	          6.54417190	         -4.32530751	          0.34422787	         28.97835684	         -1.12702302	        -12.42376041	          2.37007289	         44.19182765	
          2.01000000	        -22.20485591	          6.05000411	         -4.77526477	          0.03897089	         28.64502707	         -0.98792632	        -13.01158759	          2.60622625	         44.52878768	
          2.02000000	        -22.38271234	          5.70071391	         -5.26861740	         -0.14153336	         28.23120996	         -0.83748447	        -13.61247259	          2.89470317	         44.90099863	
          2.03000000	        -22.52369502	          5.43512529	         -5.79088652	         -0.24020628	         27.73067493	         -0.67058337	        -14.24692877	          3.25769967	         45.28397303	
          2.04000000	        -22.63250943	          5.18353053	         -6.31097201	         -0.31084746	         27.15897627	         -0.48424382	        -14.92324178	          3.69419816	         45.66399388	
          2.05000000	        -22.71445805	          4.90533464	         -6.79977520	         -0.38944465	         26.54643960	         -0.28168420	        -15.62421968	          4.17842692	         46.05422205	
          2.06000000	        -22.73833880	          4.52628966	         -7.13783123	         -0.53922694	         25.94245252	         -0.06643777	        -16.38615540	          4.69270864	         46.40922393	
          2.07000000	        -22.72983122	          4.04926198	         -7.34723972	         -0.76818534	         25.38405727	          0.15296288	        -17.20154897	          5.20660802	         46.72775114	
          2.08000000	        -22.70162894	          3.52416591	         -7.45521369	         -1.04603323	         24.89445140	          0.36550534	        -18.05336863	          5.68481214	         47.01658084	
          2.09000000	        -22.65626466	          3.00482594	         -7.48176033	         -1.33558004	         24.48220437	          0.56176247	        -18.92815924	          6.10562274	         47.27731935	
          2.10000000	        -22.54236075	          2.52685564	         -7.35010471	         -1.60761932	         24.14673191	          0.73473975	        -19.81661764	          6.46097987	         47.50129675	
          2.11000000	        -22.59298809	          2.13486452	         -7.49312056	         -1.84087686	         23.87862831	          0.88058653	        -20.71069291	          6.75755623	         47.66572939	
          2.12000000	        -22.67930809	          1.82521205	         -7.68739709	         -2.02829010	         23.66837247	          0.99875568	        -21.59780987	          7.00532477	         47.75261212	
          2.13000000	        -22.74795299	          1.58856021	         -7.84151306	         -2.17154555	         23.50684219	          1.09090013	        -22.47040214	          7.21604335	         47.75543374	
          2.14000000	        -22.78512243	          1.40964343	         -7.93216119	         -2.27907437	         23.38500576	          1.16120960	        -23.31665582	          7.40184488	         47.67838563	
          2.15000000	        -22.78215236	          1.26834522	         -7.94522961	         -2.36272196	         23.29158134	          1.21614347	        -24.11770770	          7.57687754	         47.52984134	
          2.16000000	        -22.64051158	          1.13972005	         -7.70415109	         -2.43368120	         23.21997026	          1.26076893	        -24.85324360	          7.74886399	         47.30576448	
